<?xml version="1.0" encoding="UTF-8"?>
<svg id="Layer_2" data-name="Layer 2" xmlns="http://www.w3.org/2000/svg" viewBox="0 0 278.61 192.86">
  <defs>
    <style>
      .cls-1 {
        stroke-width: .72px;
      }

      .cls-1, .cls-2 {
        fill: none;
        stroke: #000;
        stroke-linecap: round;
        stroke-linejoin: round;
      }

      .cls-3 {
        font-family: ArialMT, Arial;
        font-size: 13.14px;
      }

      .cls-2 {
        stroke-width: .72px;
      }
    </style>
  </defs>
  <g id="Layer_1-2" data-name="Layer 1">
    <path class="cls-1" d="M95.47,148.97c-8.71-2.92-15.5-2.53-17.52.99-2.02,3.52,1.08,9.57,8,15.62"/>
    <path class="cls-1" d="M104.98,132.36c-8.71-2.92-15.5-2.53-17.52.99s1.08,9.57,8,15.62"/>
    <path class="cls-1" d="M114.49,115.78c-8.71-2.92-15.5-2.53-17.52.99s1.08,9.57,8,15.62"/>
    <polyline class="cls-2" points="114.49 115.79 125.81 96.03 114.2 76.44"/>
    <line class="cls-2" x1="221.64" y1="96.03" x2="125.81" y2="96.03"/>
    <path class="cls-1" d="M85.96,165.55c-6.8-2.28-12.54-2.57-15.65-.81s-3.3,5.41-.49,9.94"/>
    <line class="cls-2" x1="221.64" y1="96.03" x2="265.94" y2="96.03"/>
    <path class="cls-2" d="M221.64,96.43C221.64,43.37,178.63.36,125.57.36S29.5,43.37,29.5,96.43s43.01,96.07,96.07,96.07,96.07-43.01,96.07-96.07"/>
    <line class="cls-2" x1="69.04" y1="18.76" x2="12.65" y2="18.76"/>
    <path class="cls-2" d="M12.67,18.75c0-3.4-2.76-6.15-6.15-6.15S.36,15.35.36,18.75s2.76,6.15,6.15,6.15,6.15-2.76,6.15-6.15"/>
    <path class="cls-2" d="M278.25,96.03c0-3.4-2.76-6.15-6.15-6.15s-6.15,2.76-6.15,6.15,2.76,6.15,6.15,6.15,6.15-2.76,6.15-6.15"/>
    <path class="cls-1" d="M85.96,26.5c-6.92,6.04-10.02,12.09-8,15.62,2.02,3.52,8.81,3.9,17.52.99"/>
    <path class="cls-1" d="M95.46,43.09c-6.92,6.04-10.02,12.09-8,15.62,2.02,3.52,8.81,3.9,17.52.99"/>
    <path class="cls-1" d="M104.97,59.67c-6.92,6.04-10.02,12.09-8,15.62,2.02,3.52,8.81,3.9,17.52.99"/>
    <path class="cls-1" d="M69.05,18.76c-2.09,4.15-1.45,7.35,1.76,8.82s8.72,1.09,15.15-1.06"/>
    <line class="cls-2" x1="265.94" y1="43.11" x2="95.45" y2="43.11"/>
    <path class="cls-2" d="M278.25,43.1c0-3.4-2.76-6.15-6.15-6.15s-6.15,2.76-6.15,6.15,2.76,6.15,6.15,6.15,6.15-2.76,6.15-6.15"/>
    <text class="cls-3" transform="translate(228.37 87.95)"><tspan x="0" y="0">HIGH</tspan></text>
    <text class="cls-3" transform="translate(221.36 37.77)"><tspan x="0" y="0">LOW</tspan></text>
    <line class="cls-2" x1="69.82" y1="174.68" x2="13.42" y2="174.68"/>
    <path class="cls-2" d="M13.44,174.68c0-3.4-2.76-6.15-6.15-6.15s-6.15,2.76-6.15,6.15,2.76,6.15,6.15,6.15,6.15-2.76,6.15-6.15"/>
    <text class="cls-3" transform="translate(202.93 88.83)"><tspan x="0" y="0">C</tspan></text>
    <text class="cls-3" transform="translate(88.06 20.71)"><tspan x="0" y="0">R</tspan></text>
    <text class="cls-3" transform="translate(87.41 180.16)"><tspan x="0" y="0">S</tspan></text>
  </g>
</svg>