<?xml version="1.0" encoding="UTF-8"?>
<svg id="Layer_2" data-name="Layer 2" xmlns="http://www.w3.org/2000/svg" viewBox="0 0 158.28 107.82">
  <defs>
    <style>
      .cls-1 {
        fill: none;
        stroke: #000;
        stroke-linecap: round;
        stroke-linejoin: round;
        stroke-width: .72px;
      }

      .cls-2 {
        font-family: ArialMT, Arial;
        font-size: 21.44px;
      }
    </style>
  </defs>
  <g id="Layer_1-2" data-name="Layer 1">
    <g>
      <line class="cls-1" x1="108.45" y1="99.96" x2="142.86" y2="99.96"/>
      <path class="cls-1" d="M30.23,7.88c1.84,9.21,5.63,15.04,9.77,15.04s7.93-5.83,9.77-15.04"/>
      <path class="cls-1" d="M49.79,7.88c1.84,9.21,5.63,15.04,9.77,15.04s7.93-5.83,9.77-15.04"/>
      <path class="cls-1" d="M69.35,7.88c1.84,9.21,5.63,15.04,9.77,15.04s7.93-5.83,9.77-15.04"/>
      <path class="cls-1" d="M88.91,7.88c1.84,9.21,5.63,15.04,9.77,15.04s7.93-5.83,9.77-15.04"/>
      <path class="cls-1" d="M108.5,7.88c1.84,9.21,5.63,15.04,9.77,15.04s7.93-5.83,9.77-15.04"/>
      <line class="cls-1" x1="30.21" y1="7.89" x2="15.36" y2="7.89"/>
      <path class="cls-1" d="M69.34,99.97c-1.84-9.21-5.63-15.04-9.77-15.04s-7.93,5.83-9.77,15.04"/>
      <path class="cls-1" d="M88.9,99.97c-1.84-9.21-5.63-15.04-9.77-15.04s-7.93,5.83-9.77,15.04"/>
      <path class="cls-1" d="M108.46,99.97c-1.84-9.21-5.63-15.04-9.77-15.04s-7.93,5.83-9.77,15.04"/>
      <line class="cls-1" x1="49.77" y1="99.96" x2="15.36" y2="99.96"/>
    </g>
    <text class="cls-2" transform="translate(43.35 63.33)"><tspan x="0" y="0">24 VAC</tspan></text>
    <g>
      <path class="cls-1" d="M15.39,99.94c0-4.15-3.36-7.51-7.51-7.51s-7.51,3.36-7.51,7.51,3.36,7.52,7.51,7.52,7.51-3.36,7.51-7.52"/>
      <path class="cls-1" d="M157.92,99.94c0-4.15-3.36-7.51-7.51-7.51s-7.51,3.36-7.51,7.51,3.36,7.52,7.51,7.52,7.51-3.36,7.51-7.52"/>
      <path class="cls-1" d="M15.39,7.87C15.39,3.72,12.03.36,7.87.36S.36,3.72.36,7.87s3.36,7.51,7.51,7.51,7.51-3.36,7.51-7.51"/>
      <path class="cls-1" d="M157.92,7.87c0-4.15-3.36-7.51-7.51-7.51s-7.51,3.36-7.51,7.51,3.36,7.51,7.51,7.51,7.51-3.36,7.51-7.51"/>
      <line class="cls-1" x1="30.21" y1="37.05" x2="128.04" y2="37.05"/>
      <line class="cls-1" x1="30.21" y1="70.8" x2="128.04" y2="70.8"/>
      <line class="cls-1" x1="128.04" y1="7.89" x2="142.86" y2="7.89"/>
    </g>
  </g>
</svg>